# xmcd
#
# Track frame offsets:
#	150
#	16970
#	36157
#	54600
#	73650
#	91830
#	110935
#	128175
#	146550
#	163575
#
# Disc length: 2443 seconds
#
# Revision: 0
# Processed by: cddbd v1.5.2PL0 Copyright (c) Steve Scherf et al.
# Submitted via: EasyCDDAExtractor 15.3.0.1
#
DISCID=8c09890a
DTITLE=Ashley - El Poder De Las Mujeres
DYEAR=2000
DGENRE=Latin
TTITLE0=Calle Calle
TTITLE1=El Poder De Las Mujeres
TTITLE2=Corazon Prohibido
TTITLE3=Una Noche Bomba
TTITLE4=Ese Nene Me Domina
TTITLE5=Sangre Caliente
TTITLE6=La Chica Bomba
TTITLE7=Mentiroso
TTITLE8=Zuku Zuku
TTITLE9=Calle Calle (Long Version)
EXTD=
EXTT0=
EXTT1=
EXTT2=
EXTT3=
EXTT4=
EXTT5=
EXTT6=
EXTT7=
EXTT8=
EXTT9=
PLAYORDER=
